<svg xmlns="http://www.w3.org/2000/svg" version="1.1" width="600px" height="600px" viewBox="0 0 200 200" style="overflow:hidden!important;"><g id="svga-group-wrapper"><g id="svga-group-backs-single"><path id="SvgjsPath10189" d="M0 0h200v200H0V0z" fill="#ecf0f1" stroke-width="none" opacity="1"></path></g><g id="svga-group-humanwrap-move" transform="matrix(1,0,0,1,0,0)"><g id="svga-group-humanwrap"><g id="svga-group-hair-back-move" transform="matrix(1,0,0,1,0,0)"><g id="svga-group-hair-back"><path id="SvgjsPath12847" d="M120 28.1s3.7-7.1-5.6-12.8-20.7-6.6-25.1-3.7c0 0-22.9-7.6-40 21.2 0 0-7.1 3.2-11 17.3s8 38.3 8 38.3 11.2 25.9 4.2 38.8-12.9 19.5-12.5 28.6c.5 9 4.6 14.9 13.9 21.7s10.5 19.8 10.5 19.8 11.2-3.2 12.7-8.8c1.5-5.6-1-18.3.5-24.2 1.5-5.9 4.6-12.2 6.8-19.8C84.7 137.1 120 28.1 120 28.1z" fill="#2a232b" stroke-width="none" opacity="1" stroke="none"></path><path id="SvgjsPath12848" d="M120.4 22.5c-.5-1.6-1.4-3-2.5-4.2-2.2-2.5-4.8-4.5-7.7-5.9-1.5-.7-3-1.3-4.6-1.7-1.6-.4-3.2-.7-4.8-.8-3.2-.3-6.5.2-9.5 1.3 3.2-.5 6.3-.6 9.4-.1 3.1.4 6.1 1.3 8.8 2.7 1.4.7 2.7 1.4 4 2.4 1.3.9 2.4 1.9 3.6 3 1.1 1.1 2 2.3 2.7 3.7.7 1.4.9 3 .5 4.5.7-1.6.6-3.4.1-4.9zM89.9 11.6c-4.1-1.3-8.5-1.4-12.7-.6-4.2.8-8.2 2.4-11.9 4.6-1.8 1.1-3.6 2.3-5.3 3.7-1.7 1.3-3.2 2.8-4.7 4.4-2.7 3-5 6.5-6.8 10.2-2.4 1.5-4.4 3.5-6 5.8-1.8 2.6-3.2 5.6-4.1 8.7-1.7 6.2-1.7 12.8-.4 19.1 2.6 12.7 9.2 23.9 12.2 36.1 1.5 6.1 2.2 12.5 1.2 18.6-.5 3.1-1.6 6-3.1 8.8-1.5 2.8-3.3 5.3-5 8-1.7 2.7-3.3 5.5-4.3 8.6-1 3.1-1.4 6.5-.5 9.6.9 3.2 3 5.8 5.4 7.9 2.4 2.1 5.1 3.8 7.8 5.4-2.7-1.8-5.3-3.6-7.6-5.7-2.3-2.2-4.2-4.8-5-7.8-.8-3-.4-6.2.7-9.1 1-3 2.6-5.7 4.4-8.3s3.7-5.2 5.2-8.1c1.6-2.8 2.7-5.9 3.3-9.1 1.2-6.4.5-13-1-19.2-1.6-6.2-4-12.2-6.4-18.1-2.4-5.9-4.7-11.8-6.1-17.9-1.4-6.1-1.6-12.6 0-18.7.8-3.1 2-6 3.7-8.6 1.5-2.3 3.4-4.3 5.7-6-1.9 4-3.2 8.2-3.8 12.6-.5 4.2-.4 8.5.3 12.7.8 4.2 2.1 8.2 4 12-.8-1.9-1.5-3.9-2.1-5.9-.5-2-1-4.1-1.2-6.2-.5-4.1-.5-8.3.2-12.4s1.8-8.1 3.7-11.8c.9-1.9 1.9-3.7 3.1-5.4 1.2-1.7 2.5-3.3 3.8-4.9 5.5-6.1 12.8-10.8 20.9-12.6 4-.9 8.3-.9 12.3.2s7.7 3.3 10.4 6.5c-2.5-3.3-6.3-5.8-10.3-7.1zM69 26.8c-3.3 1.4-6.3 3.5-8.9 6-2.5 2.5-4.7 5.5-6.3 8.8-1.6 3.3-2.7 6.7-3.3 10.3-1.3 7.1-.8 14.4.3 21.5 1.2 7.1 3.1 14 4.8 20.9 1.7 6.9 3.3 13.8 3.8 20.9.4 7-.2 14.2-2.8 20.8-.6 1.6-1.4 3.2-2.2 4.8-.5.7-.9 1.5-1.4 2.2-.5.7-1 1.4-1.6 2.1-2.2 2.8-4.6 5.6-6 8.9-.7 1.7-1.2 3.5-1.2 5.3-.1 1.8.4 3.7 1.3 5.2.9 1.6 2.2 2.9 3.6 4s2.9 2 4.5 2.9c-1.5-1-3-2-4.3-3.1-1.3-1.1-2.6-2.4-3.4-4-.8-1.5-1.2-3.3-1.1-5 .1-1.7.6-3.4 1.3-5 1.5-3.2 3.9-5.9 6.1-8.6.6-.7 1.1-1.4 1.6-2.1s1-1.5 1.5-2.3c.9-1.6 1.8-3.2 2.4-4.9 1.4-3.4 2.2-6.9 2.7-10.5.5-3.6.5-7.2.3-10.8-.4-7.2-2-14.3-3.7-21.2-1.8-6.9-3.7-13.8-4.9-20.8-1.2-7-1.6-14.1-.5-21.1.5-3.5 1.5-6.9 3-10.1 1.5-3.2 3.5-6.1 6-8.7 2.4-2.6 5.4-4.7 8.5-6.2 3.2-1.5 6.8-2.2 10.3-2.1-3.4-.1-7.1.5-10.4 1.9z" fill="#0c080c" stroke-width="none" opacity="1" stroke="none"></path><path id="SvgjsPath12849" d="m76.2 26.7 4.5-3.6s4-4 13.6-4.9c5.9-.5 15 .1 21.4 4.1 2.6 1.6 4.5 4.8 4.5 4.8s-8.5-4.9-21-4.6c-12.4.4-17.8 1.6-23 4.2z" fill="#000000" stroke-width="none" opacity="1"></path></g></g><g id="svga-group-humanbody-back"><path id="SvgjsPath10257" d="M77.8 105.9s4.8 37.7 10 55.8c0 0-6.4 8.8-14.5 11.9-28.7 11.2-35 11.2-39.6 15.2-2.4 2.1.2 11.1 1.8 17.2 1.3 5 1.7 13.2 1.7 13.2h132.2s1.6-33-.6-39.8-7.1-2.9-21.9-4.5c-14.8-1.6-28.7-10.3-31-13.2l.3-60-38.4 4.2z" fill="#f3d4cf" stroke-width="none" opacity="1" stroke="none"></path></g><g id="svga-group-chinshadow-single"><path id="SvgjsPath11014" d="M85.6 152.8c6.6 3.5 10.7 3.5 10.7 3.5s8 0 19.6-9.5l.2-45.2-38.4 4.2c.1.1 3.6 27.7 7.9 47z" fill="#d4958a" stroke-width="none" opacity="1" stroke="none"></path></g><g id="svga-group-humanbody-front"><path id="SvgjsPath10258" d="M72.1 183.1s14.6-.2 20.4 2.6c5.8 2.9 12.7 2.4 16.1-1s21.6-7 21.6-7-19.7 1.9-25 4.6c-5.3 2.7-22.3-2.8-33.1.8z" fill="#d4958a" stroke-width="none" opacity="1" stroke="none"></path><path id="SvgjsPath10259" d="M74.2 173.2c6.7-1.3 14.7-6.4 14.7-6.4l6.2 5.5c-4.3-7.9-12.7-41.1-12.7-41.1l-.7.7c1.7 10.5 3.9 21.9 6.1 29.7 0 0-6 8.2-13.6 11.6z" fill="#d4958a" stroke-width="none" opacity="1" stroke="none"></path><path id="SvgjsPath10260" d="M170.7 188.5c-.1-2.1-.2-4.1-.4-6.2-.1-1-.3-2.1-.6-3.2-.2-.5-.4-1-.6-1.6-.2-.5-.6-1-1-1.5s-.9-.9-1.5-1.1c-.6-.3-1.1-.4-1.7-.6-1.1-.2-2.2-.2-3.2-.2-2.1 0-4.1.1-6.1.1s-4-.1-6-.2-4-.4-6-.7c-1-.2-2-.4-2.9-.6l-1.5-.4c-.5-.1-1-.3-1.4-.4-3.8-1.1-7.6-2.6-11.2-4.4l-1.3-.7-1.3-.7c-.4-.2-.9-.5-1.3-.8s-.9-.5-1.3-.8-.8-.5-1.3-.8l-1.2-.9-.6-.5-.3-.2-.3-.2c-.2-.2-.4-.3-.5-.5l-.2-.3v-44.6l-.1-15v-.6l-.6.1c-6.4.8-12.9 1.5-19.3 2.3l-19.1 2.3v.5l.1.4.1.9.2 1.8c.1 1.2.3 2.3.4 3.5l.9 7c.6 4.7 1.3 9.4 2.1 14 .8 4.7 1.5 9.3 2.5 14 .9 4.5 1.8 9 3 13.5-1.1 1.4-2.3 2.7-3.6 4-1.3 1.3-2.8 2.6-4.3 3.8-1.5 1.1-3.1 2.2-4.8 3l-1.3.6c-.4.2-.9.3-1.3.5l-2.7 1c-7.2 2.7-14.5 5.3-21.8 7.7l-5.5 1.8c-1.8.6-3.7 1.3-5.5 2.2-.4.2-.9.5-1.3.7-.4.3-.9.5-1.3.9l-.6.5c-.2.2-.5.5-.6.8-.3.5-.4 1.1-.5 1.6-.2 1.1-.1 2.1 0 3.1s.3 2 .4 2.9c.4 1.9.8 3.8 1.3 5.7l.8 2.8c.3.9.5 1.8.7 2.8.4 1.9.7 3.8.9 5.7s.4 3.8.5 5.7v.8h133.4v-.8c.2-4.1.4-8.2.5-12.3s.2-8.2.2-12.3c0-1.8-.1-3.8-.1-5.9zm-67.4 30.3H70.2l-16.5-.1-16-.1c-.1-1.8-.2-3.5-.4-5.3-.2-1.9-.4-3.9-.8-5.8-.2-1-.4-1.9-.7-2.9l-.7-2.8c-.5-1.9-.9-3.7-1.2-5.6-.2-.9-.3-1.9-.4-2.8-.1-.9-.1-1.9 0-2.7.1-.4.2-.8.4-1.1.1-.2.2-.3.3-.4l.5-.4c.3-.3.7-.5 1.1-.8.4-.2.8-.5 1.2-.7 1.7-.8 3.5-1.4 5.3-2l5.5-1.8c7.3-2.4 14.6-5 21.8-7.8l2.7-1c.5-.2.9-.3 1.4-.5l1.4-.6c1.8-.9 3.4-2 5-3.2s3-2.5 4.4-3.9 2.7-2.9 3.8-4.5l.2-.3-.1-.3c-1.3-4.5-2.3-9.1-3.3-13.7s-1.9-9.3-2.7-13.9c-.8-4.6-1.6-9.3-2.4-14l-2.2-13.9 19.3-1.8c6.2-.6 12.3-1.2 18.5-1.8l-.2 14.4-.2 15-.3 30v.4l.2.2.6.7.6.6.3.3.3.2.6.5c.4.3.9.6 1.3.9.4.3.9.6 1.3.9.4.3.9.5 1.3.8s.9.5 1.3.8l1.4.8 1.4.7c.5.2.9.5 1.4.7l1.4.7c1 .4 1.9.8 2.9 1.2s1.9.8 2.9 1.1l1.5.5c.5.2 1 .3 1.5.4.5.1 1 .3 1.5.4l1.5.4c1 .3 2 .4 3 .6 2 .4 4.1.6 6.2.8 2.1.2 4.1.2 6.2.2 2.1 0 4.1-.1 6.1-.1s4 .1 5 1.3c.5.6.9 1.4 1.2 2.3.3.9.4 1.9.6 2.8.3 2 .4 4 .5 6s.1 4.1.2 6.1c.1 7.9-.1 15.8-.4 23.7-10.8.1-21.5.1-32.3.2h-33.1z" fill="#c5796d" stroke-width="none" opacity="1" stroke="none"></path><path id="SvgjsPath10261" d="M150.7 219.2 147 198l-.4 21.2z" fill="#d4958a" stroke-width="none" opacity="1" stroke="none"></path><path id="SvgjsPath10262" d="M47.3 203.5s2.2 11.5 2.9 15.7h3.5l-6.4-15.7z" fill="#d4958a" stroke-width="none" opacity="1" stroke="none"></path></g><g id="svga-group-clothes-single"><path id="SvgjsPath10393" d="M70.5 188.4s17.7 11.1 20.6 13.2c2.9 2.2 13.3 5.2 13.3 5.2s13.5-6.3 15.2-7.7c1.7-1.4 16.3-17.4 16.3-17.4v38H71.7l-1.2-31.3z" fill="#ffffff" stroke-width="none" opacity="1"></path><path id="SvgjsPath10394" d="M73.7 175c.4-1.1 6.3-6.7 6.3-6.7l-5.9.3-19.1 6.5 3.5 1.3s-17.8 6.5-20.2 6.7c-2.5.2-7.2 0-7 2.8 0 0-2.8 1.5-2.8 3.4s6.1 20.2 8.3 30.4h47.1s-7.1-19.1-8.2-23.6c-1.3-4.5-2.4-19.9-2-21.1zm98.9-.1c-1.2-.8-3-.3-3-.3s-.1-2.9-1.2-3-7.7.8-11.9 1.2-13.1-.3-13.1-.3l1.2-1.1c-2.9-.1-16.2-6-17.9-6.5s-5.4-.3-5.4-.3 3.6 2.6 4.2 3.8c.6 1.2 6.9 20.1 6.5 24.5s-5 26.9-5 26.9h45.5c.1 0 1.3-44.2.1-44.9z" fill="#09aac5" stroke-width="none" opacity="1"></path><path id="SvgjsPath10395" d="M173.6 177.7c0-.5 0-1-.1-1.5 0-.3 0-.5-.1-.8 0-.1 0-.3-.1-.4 0-.1-.1-.2-.1-.3 0-.1-.2-.3-.3-.3l-.1-.1c-.6-.3-1.2-.5-1.8-.5h-.8c0-.4-.1-.7-.2-1.1-.1-.3-.2-.7-.4-1-.1-.2-.3-.4-.5-.6-.2-.2-.7-.3-.8-.3-.8 0-1.3 0-1.9.1l-1.8.2-7.1.8c-2.3.3-4.6.3-7 .3-1.7-.1-3.5-.1-5.2-.2l1.1-1-1.8-.2c-.8-.1-1.8-.4-2.8-.6-1-.3-1.9-.6-2.9-.9l-5.7-2.1c-1.9-.7-3.8-1.4-5.8-2.1-1-.4-2.1-.4-3.1-.4h-3.1s-.1 0-.1.1l.1.1.1.1.2.1.3.3.7.6c.5.4.9.8 1.3 1.2.4.4.9.9 1.2 1.3.2.5.4 1.1.6 1.6.7 2.3 1.4 4.6 2.1 7 .7 2.3 1.3 4.7 1.9 7 .2 1 .5 2 .7 3-.6.6-1.2 1.3-1.8 1.9-2.4 2.4-4.7 4.9-7.1 7.3l-1.8 1.8c-.3.3-.6.5-.9.7-.3.2-.7.4-1.1.6-1.5.8-3 1.5-4.5 2.3l-8.9 4.3c-3-.9-5.9-1.9-8.8-3-1.5-.6-3-1.2-4.2-2.1-1.4-.9-2.7-1.8-4.1-2.6-2.8-1.7-5.5-3.4-8.3-5.1l-3.4-2c-.6-3.8-1-7.7-1.3-11.6-.1-1.1-.2-2.3-.2-3.4v-.8c0-.2 0-.4.2-.6.3-.4.7-.9 1-1.3.7-.9 1.5-1.7 2.3-2.6l1.2-1.3.6-.6.3-.3.2-.2.1-.1s.1-.1.1-.2h-6.1c-3.2 1-6.4 2-9.7 3-3.2 1-6.4 2-9.6 3.1l-2.1.7 2.1.8 1.3.5c-3.9 1.4-7.9 2.7-11.8 4.1-1.2.4-2.3.8-3.5 1.1-.6.2-1.2.4-1.7.5-.3.1-.5.1-.8.2l-.9.1c-1.2.1-2.5.2-3.8.5-.6.2-1.3.4-1.9.9l-.4.4-.3.6c-.1.2-.1.4-.1.6v.2c-.6.4-1.1.8-1.6 1.3-.5.6-1.1 1.4-1.1 2.3 0 .5.1.9.2 1.2.1.4.2.7.3 1.1.2.7.4 1.4.6 2.2l2.6 8.6c.9 2.9 1.7 5.8 2.5 8.7.8 2.9 1.5 5.8 2.1 8.8l.1.4 136.8.1v-.5c.1-4 0-8 .1-12l.2-12 .2-12v-6zm-5.4-5.3zm-108 46.5-8.9.1c-.2-3.1-.6-6.2-1.1-9.3-.5-3.5-1.1-7-1.7-10.4l-.5-2.6-.3-1.3c0-.2-.1-.5-.2-.8-.1-.3-.3-.5-.4-.7-.6-.9-1.4-1.5-2.1-2-.8-.6-1.5-1-2.3-1.4-3.2-1.7-6.6-2.8-10-3.6 3.2 1.6 6.3 3.1 9.3 5 1.4.9 2.9 1.9 3.7 3.1.1.1.2.3.2.4 0 .1.1.2.1.5l.2 1.3.5 2.6c.7 3.4 1.4 6.9 2.2 10.3.7 3 1.5 6 2.3 9h-2.6l-11.4.2c-.7-2.8-1.5-5.6-2.3-8.4l-2.5-8.7c-.8-2.9-1.7-5.8-2.4-8.7-.2-.7-.4-1.5-.5-2.2-.1-.4-.2-.7-.2-1.1-.1-.4-.1-.7-.1-1 0-.6.4-1.1.9-1.6s1.1-.9 1.7-1.2l.3-.2v-.4c0-.5.1-.8.5-1.1.4-.3.9-.5 1.4-.6 1.1-.2 2.3-.3 3.6-.3h1c.3-.1.7-.1 1-.2.6-.1 1.2-.3 1.8-.5 1.2-.4 2.4-.7 3.6-1.1 4.7-1.5 9.4-3.2 14-4.9l.8-.3c.1.1.2.1.4.1l2.1.6c.5.1.9.1 1.4.2-.5.4-1.1.8-1.6 1.2-1.1.9-2.2 1.7-3.2 2.6s-2.1 1.8-3.2 2.7l-.6.5.4.6c.9 1.3 1.8 2.7 2.6 4 .9 1.3 1.8 2.7 2.6 4 .4.7.8 1.4 1.1 2 .3.7.7 1.4 1 2.1l1.9 4.4c2.4 5.6 4.9 11.2 7.6 16.6-4.2.4-8.1.5-12.1.5zm12-.1c-.8-2.8-1.8-5.5-2.7-8.3-1.1-3-2.2-6.1-3.3-9.1l-1.8-4.5c-.3-.8-.6-1.5-1-2.3-.4-.8-.8-1.5-1.2-2.2-1.6-2.6-3.3-5-5-7.4.8-.8 1.6-1.5 2.4-2.3l3-2.9c2-1.9 4.1-3.7 6.1-5.7-1.6 1.1-3.2 2.2-4.8 3.4-.5-.2-1-.5-1.5-.7-.4-.2-.8-.3-1.3-.5l-.6-.2s-.1 0-.1-.1c-.1 0-.2-.1-.2-.1l-1.2-.4-1.4-.5c2.5-.9 4.9-1.8 7.4-2.7 3.2-1.1 6.3-2.3 9.4-3.5 1.8-.1 3.6-.4 5.6-.6l-.2.1-.3.3-.7.6-1.3 1.2c-.8.8-1.7 1.6-2.5 2.4-.4.4-.8.8-1.2 1.3-.1.1-.2.3-.3.4-.1.2-.1.4-.1.5 0 .3-.1.6-.1.9v3.5c.2 4.6.4 9.2 1.1 13.9.2 1.1.3 2.4.7 3.5.3 1.1.7 2.2 1 3.4.7 2.2 1.4 4.4 2.2 6.6 1.3 3.9 2.7 7.8 4.1 11.6-3.5.4-6.8.4-10.2.4zm15.6 0h-3.2L80 206.4l-2.3-6.5c-.4-1.1-.8-2.2-1.1-3.2-.3-1.1-.5-2.1-.7-3.3-.1-.4-.1-.9-.2-1.3l2.8 1.9 8.1 5.4c1.3.9 2.7 1.8 4 2.8 1.4 1 2.9 1.7 4.5 2.3 3 1.3 6.1 2.3 9.2 3.3l.3.1.3-.1c3.1-1.4 6.2-2.9 9.2-4.4l4.5-2.4c.4-.2.8-.4 1.1-.7.4-.3.8-.6 1.1-.9.6-.6 1.2-1.2 1.8-1.9 2.3-2.5 4.6-5.1 6.8-7.6l1.3-1.5c.2 1 .4 2 .5 2.9l.1.9v.8l-.3 1.8-.6 3.6-1.4 7.1-2.7 13.7c-7.4-.1-14.9-.1-22.3-.2-5.5-.2-10.9-.2-16.2-.2zm50.6 0-10.1-.1c.9-4.4 1.7-8.7 2.5-13.1.4-2.4.9-4.8 1.2-7.2l.6-3.6c.1-.6.2-1.2.2-1.9v-1l-.1-1c-.4-2.5-1-4.9-1.6-7.2-.7-2.4-1.4-4.7-2.2-7-.8-2.3-1.6-4.6-2.5-6.9-.2-.6-.4-1.1-.8-1.7-.4-.6-.9-.9-1.3-1.4-.5-.4-1-.8-1.4-1.1l-.8-.5-.4-.3-.1-.1h1.3c.5 0 1 .1 1.5.1 1 .1 2 .2 2.9.6l5.6 2.4c1.9.8 3.8 1.6 5.7 2.3.9.4 1.9.7 2.9 1.1.5.2 1 .3 1.5.5h-.1l-.7.6c-.4.2-.7.5-1.1.8-.9.7-1.8 1.6-2.6 2.4-1.2-.8-2.5-1.5-3.7-2.1 1.2.9 2.5 1.9 3.7 2.9l1.8 1.5c.6.5 1.3.9 2 1.3 1.4.8 2.8 1.5 4.2 2.2 1.1.6 2.2 1.1 3.4 1.6-1.4 2.6-2.8 5.3-4.1 8l-2.1 4.5c-.7 1.5-1.4 3-1.9 4.7-.4 1.7-.8 3.3-1.1 4.9-.3 1.6-.6 3.2-.9 4.9-.5 3.1-1 6-1.4 8.9zm34.1-11c-.1 3.8-.3 7.6-.4 11.5-4.1-.1-8.1-.2-12.2-.2.4-3.5.6-7 .7-10.6.1-3.9.2-7.8.1-11.7 0-1-.1-2-.1-3l-.1-.8v-.5c0-.4.1-.8.2-1.2.5-1.7 1.4-3.5 2.2-5.2 1.8-3.4 3.7-6.8 5.8-10.1-2.8 2.8-5.1 6-7.2 9.3-1 1.7-2 3.4-2.6 5.4-.2.5-.3 1-.3 1.6V193.2l.1.7c.1.9.1 1.9.1 2.9.1 3.9.2 7.8.4 11.7.1 3.5.3 7 .7 10.6-3.3-.1-6.5-.1-9.8-.1l-11.1-.1c.8-2.8 1.5-5.7 2.3-8.5.8-3.2 1.6-6.4 2.5-9.5.2-.7.6-1.4.9-2.2l1-2.2 2.2-4.4 4.4-8.9.4-.9-.9-.4c-2.9-1.2-5.8-2.4-8.6-3.7-.7-.3-1.4-.7-2.1-1.1-.6-.4-1.3-.9-1.9-1.3-.1 0-.1-.1-.1-.1.5-.1 1-.4 1.4-.6.6-.3 1.1-.7 1.6-1.1.3-.3.6-.6 1-.9l.6.1c2.4.2 4.8.4 7.1.5 2.4.1 4.8.1 7.2-.2l7.1-.8 1.8-.2c.6-.1 1.2-.1 1.6-.1l.1.1c.1.1.2.4.3.6.1.5.2 1.1.3 1.6l.1.9.9-.2c.8-.2 1.7-.2 2.3.1v.2c0 .2.1.5.1.7.1.5.1 1 .1 1.5l.3 6c.1 4 .2 8 .1 12-.4 3.9-.5 7.9-.6 11.9z" fill="#008fa6" stroke-width="none" opacity="1"></path></g><g id="svga-group-head" transform="matrix(1,0,0,1,0,0)"><g id="svga-group-ears-left-move" transform="matrix(1,0,0,1,0,0)"><g id="svga-group-ears-left"><path id="SvgjsPath13384" d="M63.09 94.03s-3.12-7.36-5.69-9.71c-2.57-2.34-7.59-5.02-9.48-4.35-1.9.67 1.12 8.81 2.23 10.6 1.12 1.79 1.12 11.49 1.23 14.39.11 2.9 2.9 6.25 5.02 8.7 2.12 2.45 4.24-1.12 5.69-4.35s1-15.28 1-15.28z" fill="#f3d4cf" stroke-width="none" opacity="1"></path><path id="SvgjsPath13385" d="M61.92 100.31c-.33-2.85-5.11-11.21-6.86-12.8-1.76-1.59-5.69-4.44-5.77-3.52s2.26 5.69 2.34 8.54.17 10.96 1.09 12.72c.92 1.76 5.69 1.51 6.53-.17s2.67-4.77 2.67-4.77z" fill="#e4b3ab" stroke-width="none" opacity="1"></path><path id="SvgjsPath13386" d="M47.07 80.79c-.11.94.06 1.79.25 2.64.4 1.69.98 3.31 1.62 4.9.33.79.68 1.58 1.11 2.33.35.72.47 1.6.59 2.43.22 1.69.26 3.4.32 5.11.04 1.71.03 3.42.05 5.13.03.85-.04 1.71.14 2.62.17.89.52 1.72.93 2.5.82 1.56 1.87 2.94 2.96 4.28.27.33.55.67.83.99.13.16.29.33.47.5.16.18.38.32.6.45.46.25 1.07.32 1.58.14.49-.19.88-.49 1.21-.81.66-.65 1.13-1.41 1.57-2.16.43-.76.81-1.54 1.15-2.34.63-1.74.72-3.45.84-5.17.17-3.44.07-6.86-.15-10.29-.62-1.62-1.31-3.18-2.08-4.71-.79-1.52-1.59-3.06-2.7-4.42-.56-.69-1.24-1.27-1.92-1.8-.69-.53-1.41-1.01-2.15-1.47-1.49-.89-3.07-1.66-4.83-2.01-.44-.07-.91-.11-1.4.01-.22.02-.56.2-.71.44-.18.22-.23.47-.28.71zm.56.1c.04-.18.1-.36.19-.47.1-.11.16-.15.37-.18.35-.08.75-.02 1.14.05 1.6.33 3.13 1.13 4.58 1.96.73.42 1.44.88 2.11 1.38.68.51 1.32 1.03 1.85 1.67 1.07 1.27 1.97 2.74 2.81 4.22.83 1.48 1.63 3.01 2.37 4.53-.03 3.41-.11 6.84-.4 10.23-.16 1.68-.34 3.42-.92 4.9-.73 1.51-1.47 3.09-2.59 4.22-.28.27-.59.49-.9.61-.31.1-.61.06-.9-.09-.55-.33-1.09-1.11-1.65-1.73-1.09-1.3-2.14-2.64-2.94-4.1-.4-.73-.72-1.5-.9-2.28-.17-.76-.15-1.64-.19-2.49-.06-1.71-.14-3.42-.25-5.13-.11-1.71-.25-3.42-.48-5.12-.14-.85-.25-1.71-.66-2.52-.43-.72-.75-1.52-1.07-2.31-.62-1.59-1.13-3.22-1.44-4.89-.14-.84-.26-1.7-.13-2.46z" fill="#e4b3ab" stroke-width="none" opacity="1"></path><path id="SvgjsPath13387" d="M53.38 89.46c.58 1.22 1.11 2.47 1.51 3.75.4 1.29.75 2.59 1.06 3.9.29 1.31.56 2.63.72 3.97l-.08.02c-.42-1.28-.8-2.56-1.2-3.84-.39-1.28-.78-2.56-1.2-3.82-.41-1.27-.78-2.55-1.24-3.8-.38-1.05-.84-2.1-1.49-3 .37 1.58.79 3.15 1.13 4.74.19.9.36 1.8.49 2.71.07.46.13.92.17 1.38.05.46.04.98.04 1.39.05 1.78.28 3.6.53 5.39.14.9.28 1.79.47 2.67.09.44.2.88.32 1.3.01.02.01.04.02.06.04-.85.09-1.71.11-2.56.04-1.28.1-2.55.06-3.83l.08-.01c.17 1.27.2 2.56.25 3.84.03 1.28.04 2.56.05 3.84v.8l-.52-.59c-.4-.46-.51-.9-.68-1.34-.15-.45-.28-.89-.39-1.34-.23-.9-.42-1.8-.58-2.71-.31-1.82-.56-3.63-.58-5.51.09-1.79-.24-3.58-.47-5.39-.26-1.8-.5-3.62-.9-5.4l-.12-.54.35.42c.88 1.08 1.49 2.29 2.09 3.5z" fill="#c5796d" stroke-width="none" opacity="1"></path></g></g><g id="svga-group-ears-right-move" transform="matrix(1,0,0,1,0,0)"><g id="svga-group-ears-right"><path id="SvgjsPath13388" d="M136.91 94.03s3.12-7.36 5.69-9.71c2.57-2.34 7.59-5.02 9.48-4.35s-1.12 8.81-2.23 10.6c-1.12 1.79-1.12 11.49-1.23 14.39-.11 2.9-2.9 6.25-5.02 8.7-2.12 2.45-4.24-1.12-5.69-4.35-1.45-3.23-1-15.28-1-15.28z" fill="#f3d4cf" stroke-width="none" opacity="1"></path><path id="SvgjsPath13389" d="M138.08 100.31c.33-2.85 5.11-11.21 6.86-12.8 1.76-1.59 5.69-4.44 5.77-3.52.08.92-2.26 5.69-2.34 8.54s-.17 10.96-1.09 12.72c-.92 1.76-5.69 1.51-6.53-.17s-2.67-4.77-2.67-4.77z" fill="#e4b3ab" stroke-width="none" opacity="1"></path><path id="SvgjsPath13390" d="M152.66 80.07c-.15-.24-.49-.42-.71-.44-.49-.12-.96-.08-1.4-.01-1.76.35-3.34 1.12-4.83 2.01-.74.45-1.46.93-2.15 1.47-.68.53-1.36 1.1-1.92 1.8-1.11 1.36-1.91 2.9-2.7 4.42-.77 1.54-1.46 3.1-2.08 4.71-.23 3.43-.33 6.85-.15 10.29.12 1.72.22 3.44.84 5.17.34.79.72 1.58 1.15 2.34.44.76.91 1.51 1.57 2.16.33.32.72.62 1.21.81.51.18 1.11.11 1.58-.14.22-.14.44-.27.6-.45.18-.17.34-.34.47-.5.28-.32.55-.66.83-.99 1.09-1.34 2.14-2.72 2.96-4.28.4-.78.75-1.61.93-2.5.17-.92.11-1.77.14-2.62.02-1.71.01-3.42.05-5.13.05-1.71.1-3.42.32-5.11.12-.83.23-1.71.59-2.43.43-.76.78-1.54 1.11-2.33.64-1.59 1.21-3.21 1.62-4.9.18-.85.36-1.7.25-2.64-.06-.23-.11-.48-.28-.71zm-.42 3.27c-.31 1.66-.82 3.3-1.44 4.89-.32.79-.63 1.59-1.07 2.31-.41.81-.52 1.67-.66 2.52-.22 1.7-.37 3.41-.48 5.12-.11 1.71-.2 3.42-.25 5.13-.05.85-.02 1.73-.19 2.49-.18.79-.5 1.55-.9 2.28-.8 1.46-1.85 2.8-2.94 4.1-.56.62-1.1 1.4-1.65 1.73-.29.15-.59.19-.9.09-.31-.12-.62-.34-.9-.61-1.12-1.13-1.86-2.71-2.59-4.22-.58-1.47-.76-3.22-.92-4.9-.29-3.39-.37-6.82-.4-10.23.74-1.52 1.54-3.05 2.37-4.53.84-1.48 1.73-2.95 2.81-4.22.53-.63 1.17-1.16 1.85-1.67.67-.5 1.39-.96 2.11-1.38 1.45-.83 2.98-1.63 4.58-1.96.39-.07.8-.12 1.14-.05.21.03.27.07.37.18.09.11.15.29.19.47.13.77.01 1.63-.13 2.46z" fill="#e4b3ab" stroke-width="none" opacity="1"></path><path id="SvgjsPath13391" d="M146.62 89.46c-.58 1.22-1.11 2.47-1.51 3.75-.4 1.29-.75 2.59-1.06 3.9-.29 1.31-.56 2.63-.72 3.97l.08.02c.42-1.28.8-2.56 1.2-3.84.39-1.28.78-2.56 1.2-3.82.41-1.27.78-2.55 1.24-3.8.38-1.05.84-2.1 1.49-3-.37 1.58-.79 3.15-1.13 4.74-.19.9-.36 1.8-.49 2.71-.07.46-.13.92-.17 1.38-.05.46-.04.98-.04 1.39-.05 1.78-.28 3.6-.53 5.39-.14.9-.28 1.79-.47 2.67-.09.44-.2.88-.32 1.3-.01.02-.01.04-.02.06-.04-.85-.09-1.71-.11-2.56-.04-1.28-.1-2.55-.06-3.83l-.08-.01c-.17 1.27-.2 2.56-.25 3.84-.03 1.28-.04 2.56-.05 3.84v.8l.52-.59c.4-.46.51-.9.68-1.34.15-.45.28-.89.39-1.34.23-.9.42-1.8.58-2.71.31-1.82.56-3.63.58-5.51-.09-1.79.24-3.58.47-5.39.26-1.8.5-3.62.9-5.4l.12-.54-.35.42c-.88 1.08-1.49 2.29-2.09 3.5z" fill="#c5796d" stroke-width="none" opacity="1"></path></g></g><g id="svga-group-faceshape-wrap"><g id="svga-group-faceshape-single"><path id="SvgjsPath11004" d="M135.9 49.8c-6.7-7.4-11.3-13.2-28.8-17.3-1.8-.4-12.3-.4-14.1 0-17.5 4.1-22.1 9.9-28.8 17.3-7.1 7.8-9.5 29-9.5 29 0 9.6 1.3 32.3 13.3 47.2 17.8 22.2 32.1 22.3 32.1 22.3s14.2 0 32.1-22.3c12-14.9 13.3-37.6 13.3-47.2-.1 0-2.5-21.2-9.6-29z" fill="#f3d4cf" stroke-width="none" opacity="1" stroke="none"></path><path id="SvgjsPath11005" d="M107.1 32.5c-1.8-.4-12.3-.4-14.1 0-17.5 4.1-22.1 9.9-28.8 17.3-7.1 7.8-9.5 29-9.5 29 0 9.6 1.3 32.3 13.3 47.2 17.8 22.2 32.1 22.3 32.1 22.3s14.2 0 32.1-22.3c12-14.9 13.3-37.6 13.3-47.2 0 0-2.4-21.2-9.5-29-6.9-7.4-11.5-13.2-28.9-17.3zM142 63.8c.7 2.5 1.1 5 1.6 7.5.4 2.5.7 5 1 7.5-.2 7.4-1.3 14.8-3 22-.9 3.6-1.9 7.1-3.3 10.5-.7 1.7-1.4 3.4-2.2 5s-1.7 3.2-2.7 4.7l-1.5 2.2c-.3.4-3.4 4.2-3.4 4.2l-3.7 4.1-6.1 5.7c-2.8 2.3-5.8 4.5-9 6.2l-1.2.6-1.2.6c-.8.4-1.6.7-2.5 1l-1.3.4c-.4.1-.8.2-1.3.3-.4.1-1.71.43-2.9.4 0 0-1.4-.2-1.9-.3-.4-.1-.9-.2-1.3-.3l-1.3-.4c-.8-.3-1.7-.6-2.5-1l-1.2-.5-1.2-.6c-3.2-1.6-6.3-3.7-9.1-6l-4.1-3.6-3.9-3.9-1-1-.9-1-1.8-2.1c-1.2-1.4-2.3-2.8-3.3-4.4-1-1.5-2-3.1-2.8-4.8-.8-1.6-1.6-3.3-2.3-5.1-.7-1.7-1.3-3.5-1.8-5.3s-1-3.6-1.4-5.4-.8-3.6-1-5.5c-.3-1.8-.5-3.7-.7-5.5-.4-3.7-.5-7.4-.5-11.1.3-2.3.8-4.6 1.2-6.9.5-2.3 1.1-4.6 1.7-6.8.7-2.2 1.4-4.5 2.3-6.6.4-1.1.9-2.1 1.4-3.1s2.59-4.47 6.3-8.1c1.6-1.7 3.3-3.3 5-4.7 3.5-2.8 7.7-4.9 12-6.5l1.6-.6c6.69-2.31 10.6-2.2 11.8-2.3 2.3-.1 4.71-.26 7-.1 3.16.22 6.8 1.4 6.8 1.4 2.3.6 4.5 1.3 6.7 2.3.3.1 1.6.7 1.6.7.5.3 2.6 1.3 3.1 1.7.5.3 5.3 3.7 6.9 5.4 1.7 1.7 3.3 3.4 4.9 5.2 1.7 1.9 2.9 4.2 3.9 6.6 1.1 2.4 1.9 4.8 2.5 7.3z" fill="#c5796d" stroke-width="none" opacity="1" stroke="none"></path></g></g><g id="svga-group-mouth-single-move" transform="matrix(1,0,0,1,0,0)"><g id="svga-group-mouth-single"><path id="SvgjsPath12068" d="M86.3 122.77s3.78 5.21 6.46 6.76c2.69 1.54 6.74 2.85 11.37 1.48s9.37-6.41 9.37-6.41-5.48-2.85-7.85-3.27c-2.37-.42-6 1.66-6 1.66s-2.47-1.96-3.95-2.2-9.4 1.98-9.4 1.98z" fill="#da7c87" stroke-width="none" opacity="1" stroke="none"></path><path id="SvgjsPath12069" d="M84.89 122.33c2.54.48 5.06 1.07 7.57 1.72 1.26.32 2.5.67 3.76 1.04.65.2 1.19.39 1.81.47.61.09 1.23.12 1.86.11 1.25.01 2.52-.11 3.77-.31.31-.05.62-.1.94-.16.32-.06.65-.12.97-.16.64-.1 1.29-.17 1.93-.24 1.29-.13 2.58-.21 3.87-.25 1.29.02 2.55-.09 3.83-.34-1.21.49-2.52.76-3.79.89-1.27.17-2.54.36-3.81.57l-1.89.34c-.31.06-.62.13-.93.2l-.96.21c-1.29.24-2.59.37-3.91.38-.66-.01-1.32-.04-1.99-.15-.66-.09-1.36-.32-1.94-.53l-3.69-1.21c-2.49-.82-4.95-1.65-7.4-2.58z" fill="#cb5f6c" stroke-width="none" opacity="1" stroke="none"></path></g></g><g id="svga-group-eyes-left-move" transform="matrix(1,0,0,1,0,0)"><g id="svga-group-eyes-left"><g id="svga-group-eyesback-left"><path id="SvgjsPath10321" d="M80.2 77.2c7.5 0 13.5 5.8 13.5 13s-6 13-13.5 13-13.5-5.8-13.5-13 6-13 13.5-13z" fill="#ffffff" stroke-width="none" opacity="1"></path></g><g id="svga-group-eyesiriswrapper-left" transform="matrix(1,0,0,1,0,0)"><g id="svga-group-eyesiriscontrol-left" transform="matrix(1,0,0,1,0,0)"><g id="svga-group-eyesiris-left"><path id="SvgjsPath10277" d="M80.2 84.9c2.9 0 5.3 2.4 5.3 5.3s-2.4 5.3-5.3 5.3-5.3-2.4-5.3-5.3 2.4-5.3 5.3-5.3z" fill="#4e60a3" stroke-width="none" opacity="1"></path><path id="SvgjsPath10278" d="M80.2 95.8c-3.1 0-5.6-2.5-5.6-5.6s2.5-5.6 5.6-5.6 5.6 2.5 5.6 5.6c0 3.1-2.5 5.6-5.6 5.6zm0-10.6c-2.8 0-5.1 2.3-5.1 5.1s2.3 5.1 5.1 5.1 5.1-2.3 5.1-5.1c-.1-2.9-2.3-5.1-5.1-5.1z" fill="#253984" stroke-width="none" opacity="1"></path><path id="SvgjsPath10279" d="M80.2 87.3c1.6 0 2.9 1.3 2.9 2.9s-1.3 2.9-2.9 2.9-2.9-1.3-2.9-2.9 1.3-2.9 2.9-2.9z" fill="#000000" stroke-width="none" opacity="1"></path><path id="SvgjsPath10280" d="M78.9 87.3c.5 0 1 .4 1 1s-.4 1-1 1-1-.4-1-1 .5-1 1-1zm3.3 4.6c.2 0 .4.2.4.4s-.2.4-.4.4-.4-.2-.4-.4.2-.4.4-.4z" fill="#ffffff" stroke-width="none" opacity="1"></path></g></g></g><g id="svga-group-eyesfront-left"><path id="SvgjsPath10329" d="M80.2 76.7c-7.8 0-14.1 6.1-14.1 13.6s6.3 13.6 14.1 13.6 14.1-6.1 14.1-13.6S88 76.7 80.2 76.7zm-4 19.2c-4.4-1.5-5.8-6.1-6.6-9.2-.8-3.2 12.5-3.2 16-.4s4.8 6.7 5 8.7c0 0-10 2.5-14.4.9z" fill="#f3d4cf" stroke-width="none" opacity="1" stroke="none"></path><path id="SvgjsPath10330" d="M90.7 95v-.2c0-.5-.1-1-.3-1.4-.1-.3-.2-.6-.2-.9-.5-1.8-1.3-4.1-2.7-5.6-1.1-1.2-3.7-4-8.2-4s-7.9 1.6-8.4 1.8c-.9.4-2.5 2.3-2.5 2.3s.4-.1 1.1-.3c0 .1 0 .2.1.3.1.3.2.6.2.8.2.5.3 1.1.5 1.6.4 1.1.9 2.1 1.5 3.1.6.9 1.4 1.8 2.3 2.5s2 1.2 3.1 1.4c2.3.4 4.6.2 6.8 0 2.2-.3 4.4-.7 6.7-1.4-.1 0-.1 0 0 0 0-.1 0 0 0 0zm-.1 0c-2.2.4-4.4.8-6.7 1-1.1.1-2.2.2-3.3.2-1.1 0-2.2 0-3.3-.2-2.2-.4-4.1-1.8-5.3-3.7-.6-.9-1.1-2-1.4-3-.2-.5-.3-1.1-.5-1.6-.1-.3-.1-.5-.2-.8 0-.1-.1-.2-.1-.3 2.2-.6 6.6-1.8 9.6-1.8 4.1.1 7.2 3.3 8.4 4.6 1.1 1.1 2.4 4.4 2.8 5.3v.3z" fill="#000000" stroke-width="none" opacity="1" stroke="none"></path></g></g></g><g id="svga-group-eyes-right-move" transform="matrix(1,0,0,1,0,0)"><g id="svga-group-eyes-right"><g id="svga-group-eyesback-right"><path id="SvgjsPath10322" d="M119.8 77.2c7.5 0 13.5 5.8 13.5 13s-6 13-13.5 13-13.5-5.8-13.5-13 6-13 13.5-13z" fill="#ffffff" stroke-width="none" opacity="1"></path></g><g id="svga-group-eyesiriswrapper-right" transform="matrix(1,0,0,1,0,0)"><g id="svga-group-eyesiriscontrol-right" transform="matrix(1,0,0,1,0,0)"><g id="svga-group-eyesiris-right"><path id="SvgjsPath10281" d="M119.8 85.5c2.6 0 4.7 2.1 4.7 4.7s-2.1 4.7-4.7 4.7-4.7-2.1-4.7-4.7 2.1-4.7 4.7-4.7z" fill="#4e60a3" stroke-width="none" opacity="1"></path><path id="SvgjsPath10282" d="M119.8 95.1c-2.7 0-4.9-2.2-4.9-4.9s2.2-4.9 4.9-4.9 4.9 2.2 4.9 4.9-2.2 4.9-4.9 4.9zm0-9.3c-2.4 0-4.4 2-4.4 4.4s2 4.4 4.4 4.4 4.4-2 4.4-4.4c0-2.4-2-4.4-4.4-4.4z" fill="#253984" stroke-width="none" opacity="1"></path><path id="SvgjsPath10283" d="M119.8 87.7c1.4 0 2.5 1.1 2.5 2.5s-1.1 2.5-2.5 2.5-2.5-1.1-2.5-2.5 1.1-2.5 2.5-2.5z" fill="#000000" stroke-width="none" opacity="1"></path><path id="SvgjsPath10284" d="M118.7 87.7c.5 0 .9.4.9.9s-.4.9-.9.9-.9-.4-.9-.9.4-.9.9-.9zm2.9 4c.2 0 .3.2.3.3s-.2.3-.3.3-.3-.2-.3-.3.1-.3.3-.3z" fill="#ffffff" stroke-width="none" opacity="1"></path></g></g></g><g id="svga-group-eyesfront-right"><path id="SvgjsPath10331" d="M119.8 76.7c-7.8 0-14.1 6.1-14.1 13.6s6.3 13.6 14.1 13.6 14.1-6.1 14.1-13.6-6.3-13.6-14.1-13.6zm4.4 18.2c-4 1.6-13.7.1-13.7.1.1-1.8 1.2-5.3 4.3-7.9s15.7-3.4 15.1-.6c-.5 2.8-1.7 6.8-5.7 8.4z" fill="#f3d4cf" stroke-width="none" opacity="1" stroke="none"></path><path id="SvgjsPath10334" d="M130.2 86.6s0-1.2-.8-1.5c-.6-.2-4-.9-8.3-.7-2.4.1-4.2 1-5.5 1.9-.3.1-.5.3-.8.5-.8.7-1.6 1.5-2.2 2.3-1 1.4-1.7 2.9-2 4.6-.3 1.1-.3 1.9-.3 1.9s.1-.2.2-.6c2.1.4 4.1.6 6.2.8 1 .1 2.1.1 3.1 0 1.1 0 2.1-.1 3.1-.4 1-.2 2-.7 2.9-1.3.9-.6 1.6-1.4 2.2-2.3.6-.9 1-1.8 1.3-2.8.2-.5.3-1 .4-1.5l.2-.8v-.2c.2.1.3.1.3.1zm-.4.1-.2.8c-.1.5-.2 1-.4 1.5-.3 1-.7 1.9-1.3 2.8-1.1 1.7-3 2.9-5 3.3-.5.1-1 .2-1.5.2s-1 .1-1.6.1c-1 .1-2.1 0-3.1 0-2.1-.1-4.1-.2-6.2-.4.5-1.3 1.5-4.1 2.4-5.1 1.1-1.3 3.8-4.1 7.7-4.4 3.3-.2 7.8.8 9.1 1.1.1-.1.1 0 .1.1z" fill="#000000" stroke-width="none" opacity="1" stroke="none"></path></g></g></g><g id="svga-group-facehighlight-single"></g><g id="svga-group-eyebrows-left-move" transform="matrix(1,0,0,1,0,0)"><g id="svga-group-eyebrows-left-rotate" transform="matrix(1,1.7453292519943295e-9,-1.7453292519943295e-9,1,1.2995914744351467e-7,-1.3809918186780124e-7)"><g id="svga-group-eyebrows-left"><path id="SvgjsPath10371" d="M64.55 76.13s7.64-5.4 8.86-5.62 19.49 3.09 19.95 4.12c.46 1.03-.07 3.12-1.4 3.76-1.33.64-12.63-3.98-17.91-5.17-2-.45-9.5 2.91-9.5 2.91z" fill="#2a232b" stroke-width="none" opacity="1"></path><path id="SvgjsPath10372" d="M64.52 76.15c.01.02.08.01.08 0l.03-.01.06-.02.12-.05.23-.09.47-.18.94-.35c.63-.23 1.26-.45 1.89-.67 1.26-.44 2.54-.84 3.83-1.12.32-.07.64-.12.96-.16.32-.03.63-.04.89.02.64.16 1.28.34 1.92.54 1.27.39 2.55.8 3.81 1.23 2.54.85 5.07 1.71 7.65 2.49.64.19 1.29.39 1.95.55.66.16 1.32.33 2.04.38.19 0 .37.02.62-.06l.09-.03.06-.04.12-.07c.08-.04.15-.1.23-.16.29-.23.51-.51.69-.8.34-.59.52-1.24.53-1.9 0-.33-.03-.67-.16-.99-.02-.05-.02-.07-.06-.13-.04-.07-.09-.09-.13-.13-.08-.06-.16-.1-.24-.14-.16-.08-.32-.13-.48-.19-.65-.22-1.3-.39-1.95-.55-1.31-.33-2.62-.61-3.94-.9-2.63-.58-5.25-1.18-7.9-1.68-1.33-.24-2.66-.47-4.01-.63-.34-.04-.68-.08-1.03-.09-.09 0-.18-.01-.28-.01-.05 0-.1 0-.17.01-.06.01-.1.03-.15.04-.21.06-.36.14-.52.22-.62.32-1.18.67-1.74 1.02-1.12.71-2.19 1.48-3.27 2.24-.54.38-1.07.77-1.59 1.17l-.79.59-.39.3-.19.15-.1.08c-.05.01-.1.08-.12.12zm.92-.49-.34.16.32-.2.83-.53 1.67-1.06c1.11-.71 2.23-1.41 3.36-2.09.56-.34 1.14-.67 1.71-.95l.21-.1c.07-.04.13-.04.19-.07l.09-.03h.08c.07 0 .15 0 .23.01.32.02.65.06.98.1 1.32.18 2.65.38 3.98.59 1.33.2 2.66.4 3.99.62 1.33.22 2.65.45 3.97.72 1.32.27 2.63.57 3.92.92.65.17 1.29.36 1.9.6.15.06.3.12.44.19.07.04.13.07.18.11.02.02.05.04.04.04.01 0 .02.06.03.08.09.27.11.57.09.87a3.7 3.7 0 0 1-.57 1.69c-.17.25-.37.47-.6.64-.06.04-.12.09-.18.12l-.09.05-.05.03h-.03c-.07.03-.24.02-.38.01-.62-.06-1.27-.24-1.91-.42-.64-.18-1.28-.38-1.91-.58-2.54-.82-5.05-1.74-7.61-2.57-1.28-.41-2.56-.82-3.86-1.17-.65-.18-1.31-.35-1.98-.49-.4-.09-.77-.05-1.12 0-.35.05-.69.12-1.02.2-1.33.34-2.58.82-3.83 1.32-.62.25-1.23.52-1.84.79l-.89.4z" fill="#1b141c" stroke-width="none" opacity="1"></path></g></g></g><g id="svga-group-eyebrows-right-move" transform="matrix(1,0,0,1,0,0)"><g id="svga-group-eyebrows-right-rotate" transform="matrix(1,1.7453292519943295e-9,-1.7453292519943295e-9,1,1.365545756470965e-7,-2.1299837271726574e-7)"><g id="svga-group-eyebrows-right"><path id="SvgjsPath10373" d="M135.56 80.74s-6.82-5.75-7.95-6.03c-1.13-.28-18.27 2.16-18.75 3.17-.48 1.01-.1 3.12 1.11 3.82s11.94-3.37 16.91-4.31c1.88-.36 8.68 3.35 8.68 3.35z" fill="#2a232b" stroke-width="none" opacity="1"></path><path id="SvgjsPath10374" d="m135.5 80.64-.09-.08-.17-.16-.35-.32-.7-.63c-.47-.42-.94-.84-1.42-1.24-.96-.81-1.92-1.62-2.93-2.39-.5-.38-1.01-.76-1.56-1.1-.14-.08-.28-.17-.47-.24-.05-.02-.09-.04-.14-.05-.06-.01-.12-.02-.16-.02-.09-.01-.18-.01-.26-.01-.33 0-.64.02-.96.05-1.26.1-2.51.26-3.76.44-2.49.37-4.96.85-7.43 1.3-1.24.23-2.47.45-3.7.72-.61.14-1.23.28-1.84.46-.15.05-.31.1-.46.17-.08.03-.15.07-.23.13-.04.04-.08.06-.13.12-.04.06-.04.09-.06.13-.13.32-.18.65-.2.98-.02.66.12 1.32.4 1.93.15.3.34.59.6.83.06.06.13.12.2.17l.11.08.06.04.08.04c.23.09.39.08.57.09.68-.02 1.29-.15 1.92-.28.62-.13 1.23-.3 1.84-.46 2.43-.66 4.83-1.4 7.24-2.13 1.2-.37 2.4-.72 3.6-1.05.6-.16 1.21-.32 1.81-.44.24-.06.54-.03.83.02.29.05.59.12.89.21 1.18.35 2.35.81 3.5 1.3.57.25 1.15.5 1.72.76l.85.4.43.2.21.1.11.05.05.03.03.01c-.01 0 .06.02.07 0a.339.339 0 0 0-.1-.16zm-1.56-.86c-.55-.3-1.11-.6-1.67-.88-1.13-.55-2.27-1.1-3.49-1.5-.31-.1-.62-.18-.94-.25-.32-.06-.67-.11-1.04-.05-.63.11-1.25.25-1.86.39-1.23.29-2.44.64-3.65.99-2.41.71-4.8 1.5-7.2 2.21-.6.17-1.2.34-1.81.49-.6.15-1.21.29-1.79.33-.13.01-.29 0-.36-.03l-.03-.01-.04-.03-.08-.06a.653.653 0 0 1-.16-.13c-.21-.18-.39-.41-.53-.67a3.91 3.91 0 0 1-.44-1.71c0-.3.03-.6.13-.86.01-.03.03-.08.03-.08l.04-.04c.05-.04.11-.07.18-.1.13-.07.28-.12.42-.17.58-.21 1.19-.36 1.8-.5 1.22-.29 2.45-.53 3.69-.73 1.24-.21 2.48-.37 3.73-.53 1.25-.16 2.49-.3 3.74-.43 1.25-.14 2.49-.28 3.73-.4.31-.03.62-.05.92-.06h.21c.03 0 .06.01.07.01.02.01.05.02.08.03.06.03.11.04.17.08l.19.11c.52.31 1.04.66 1.54 1.03 1.01.73 2.02 1.48 3.02 2.24l1.5 1.14.75.57.28.22-.31-.18-.82-.44z" fill="#1b141c" stroke-width="none" opacity="1"></path></g></g></g><g id="svga-group-nose-single-move" transform="matrix(1,0,0,1,0,0)"><g id="svga-group-nose-single"><path id="SvgjsPath11851" d="M92.19 104.66c-.45 1.23-.86 2.48-1.01 3.75-.07.63-.1 1.29.11 1.82l.08.19.12.18c.04.06.08.12.13.16.05.05.09.11.15.15.2.18.47.29.74.35.56.12 1.18.02 1.8-.11l.47-.11.25-.06.13-.03.16-.02c.44-.03.81.12 1.13.27.65.32 1.16.76 1.67 1.14l.19.14c.06.04.11.07.17.1.12.06.24.12.38.15.27.08.56.11.84.11.57-.01 1.14-.19 1.58-.54l.16-.14.19-.17a5.859 5.859 0 0 1 1.29-.91c.32-.16.67-.28 1.04-.33.19-.02.38-.03.59 0 .1.01.2.04.3.06l.26.1c.23.09.54.13.84.15.3.02.62.01.92-.03.6-.07 1.24-.24 1.6-.62.17-.17.24-.46.28-.76.03-.3.03-.62-.01-.93-.12-1.27-.55-2.52-1.1-3.71.71 1.1 1.23 2.34 1.5 3.65.06.33.09.67.08 1.02-.02.34-.07.73-.33 1.07-.25.32-.59.5-.91.63-.33.14-.67.21-1.01.27-.34.06-.69.08-1.03.08-.35-.01-.7-.03-1.08-.17l-.2-.07c-.06-.01-.12-.03-.18-.03-.12-.02-.26 0-.39.02-.27.05-.55.15-.81.29-.26.14-.52.3-.75.49-.12.09-.23.2-.35.3l-.17.16-.21.19c-.59.48-1.33.72-2.06.73-.37.01-.73-.04-1.09-.15a2.7 2.7 0 0 1-.53-.22c-.08-.05-.17-.11-.25-.16l-.2-.15c-.52-.4-1.02-.81-1.54-1.09-.26-.13-.52-.23-.74-.22h-.08l-.11.02-.23.05-.49.1c-.66.12-1.37.22-2.09.03-.35-.1-.71-.26-.99-.53-.26-.27-.48-.57-.59-.94-.22-.71-.12-1.41 0-2.06.14-.66.35-1.28.58-1.9.22-.58.49-1.18.8-1.76z" fill="#c5796d" stroke-width="none" opacity="1" stroke="none"></path><path id="SvgjsPath11852" d="M101.48 107.53c-.46-.46-1.1-.54-1.72-.41-.08.02-.15.03-.22.05-.26-.17-.52-.28-.87-.28-.39 0-.85.17-1.11.46-.59.64-.6 1.58 0 2.22 1.02 1.09 3.28 1.39 4.14-.07.35-.61.28-1.47-.22-1.97z" fill="#fbe5e2" stroke-width="none" opacity="1" stroke="none"></path></g></g><g id="svga-group-hair-front"><path id="SvgjsPath12845" d="M39.7 160.7c-.4-.9-.6-1.5-.6-1.5s.2.6.6 1.5zm40.4-10.1s-.7-3.8-5.2-4.6c-3.9-.8-6.9 1.7-7.7 2.6-1.5.2-4.9-1.9-11 4.8-7.3 7.9-3.1 18.8-3.1 18.8-8.5-2.2-12.1-8.5-13.4-11.3 1.5 3.8 5.6 13.8 9.2 15.5 4.4 2.1 12.3 7.8 12.7 13.8.3 6-5.2 8.3-5.2 8.3 11.8.3 16.4-4.9 17.8-7.1s2.9-6.8 2.3-11.5-1.3-17.1 1.7-24.3c1.1-3.2 1.9-5 1.9-5zM55.8 88.8l2 1.7s-.3-15.4 9.4-27.8 18-10.7 18-10.7S97 56.7 108 55c0 0 7.4 0 9.4 9 0 0 4-5.7-3.7-10.7 0 0 8.4-.3 13.4 2.3 5 2.7 9.4 9.7 12 18.4 2.7 8.7 2.3 18.1 2.3 18.1l2-2s3.7-13.7 1-25.4-7.3-18.7-7.3-18.7-1.3-4.3-5.7-7c0 0-3.7-8-10-10 0 0-.7-4-8-5.4 0 0-4.7-2.7-11-1.7 0 0-5-1.7-9.4 0 0 0-6-1.7-10 1.7 0 0-7.7 3.7-11.4 6.4s-4 9.7-4 9.7-1.4.9-2.1 1.9c-.7 1-1.4 3.7-1.4 3.7s-3.4 4.1-4.2 8.7c0 0-2.8 1-3.5 10.9 0 0-1 2.3-1.1 8.5 0 0-1.2 3.2-.8 7.3.4 3.9 1.3 8.1 1.3 8.1z" fill="#2a232b" stroke-width="none" opacity="1" stroke="none"></path><path id="SvgjsPath12846" d="M79.7 38.2c-.2-2.5.1-5.1.7-7.6.7-2.5 1.7-4.9 3.2-7.2-1.9 1.9-3.4 4.2-4.3 6.8-.9 2.6-1.3 5.3-1.1 8.1.2 2.7 1 5.4 2.3 7.8 1.3 2.4 3.1 4.5 5.2 6.1-1.8-2-3.2-4.2-4.2-6.6-1-2.3-1.7-4.9-1.8-7.4zm-6.2.2c.2-2.8 1.2-5.6 2.6-8.1 1.5-2.5 3.4-4.7 5.9-6.3-.6.2-1.1.5-1.6.8-3.2.6-6.2 2.4-8.6 4.8-2.4 2.5-4.1 5.8-4.8 9.2-.7 3.5-.3 7.1.8 10.4 1.2 3.3 3.3 6.3 6.1 8.2-2.4-2.4-4-5.5-5-8.6-.9-3.2-1.1-6.5-.5-9.8.6-3.2 2.1-6.2 4.2-8.8 1.9-2.3 4.4-4.2 7.2-5.3-1.9 1.2-3.6 2.8-4.8 4.7-1.7 2.5-2.8 5.5-3.1 8.6-.3 3.1.2 6.2 1.5 9 1.2 2.8 3.2 5.3 5.6 7-2.1-2.1-3.6-4.7-4.5-7.4-.8-2.7-1.3-5.6-1-8.4zm-8.9 32.9c-1.2-2-2.2-4.1-2.9-6.3-.7-2.2-1.1-4.4-1.1-6.7-.1-2.2.2-4.5.7-6.7.5-2.2 1.4-4.3 2.5-6.3 0 .1-.1.2-.1.3-.6 2.1-.7 4.3-.6 6.4.2 2.2.7 4.3 1.7 6.2.9 2 2.2 3.7 3.8 5.1-2.3-3.6-3.6-7.5-3.9-11.5-.2-2-.1-4 .2-6 .3-2 .9-4 1.7-5.9-1.3 1.5-2.2 3.4-2.7 5.3-1.6 1.7-2.8 3.8-3.6 6.1-.8 2.3-1.2 4.7-1.1 7.1.1 2.4.6 4.8 1.5 7s2.2 4.3 3.9 5.9zm-6.5 2c1 2 2.3 3.8 3.9 5.2-2.4-3.6-3.8-7.5-4.3-11.6-.3-2.1-.3-4.1-.1-6.2.2-2.1.7-4.1 1.4-6.2-1.2 1.8-2.1 3.8-2.5 6-.5 2.2-.5 4.4-.3 6.6.3 2.1.9 4.2 1.9 6.2zM57 81.4c.8 1.6 2 3 3.4 4-1-1.4-1.8-2.9-2.3-4.5-.6-1.6-1-3.2-1.2-4.8-.3-1.6-.4-3.3-.5-5-.1-1.7-.2-3.4-.4-5.2-.4 1.7-.6 3.4-.7 5.2-.1 1.7 0 3.5.2 5.2.1 1.8.7 3.5 1.5 5.1zm-1.3 5.3c.7 1.3 1.6 2.6 2.7 3.6-.6-1.4-1.2-2.7-1.6-4.1-.5-1.4-.8-2.8-1.1-4.2-.3-1.4-.5-2.8-.6-4.3-.1-1.4-.1-2.8-.1-4.3-.6 1.4-1 2.9-1.1 4.4-.1 1.5 0 3.1.3 4.6.3 1.4.8 2.9 1.5 4.3zm34.2-47.6c-.4-2.8-.4-5.7.2-8.5.5-2.8 1.5-5.6 2.9-8.2-1.9 2.3-3.3 5-4 7.9-.8 2.9-.9 6-.5 9 .5 3 1.5 5.9 3.2 8.4 1.6 2.5 3.7 4.8 6.2 6.3-2.1-2-3.9-4.4-5.2-6.9-1.4-2.4-2.3-5.2-2.8-8zm10.9-2.6c-.5-2.4-1.1-4.7-2-6.9-.8-2.2-1.8-4.4-3.1-6.5.7 2.3 1.4 4.6 2 6.8.6 2.3 1.2 4.6 1.6 6.9.5 2.3.9 4.6 1.2 7 .3 2.3.6 4.7.9 7.1.3-2.4.4-4.8.3-7.2-.1-2.5-.4-4.8-.9-7.2zm13 1.3c.7 2.6 1.1 5.3 1.1 8 0 1.3-.1 2.7-.4 4-.3 1.3-.9 2.5-2 3.5 1.3-.6 2.1-1.9 2.7-3.2.5-1.3.8-2.8.9-4.2.2-2.8-.2-5.7-.8-8.4-.7-2.7-1.8-5.4-3.3-7.8-1.5-2.4-3.4-4.5-5.6-6.2 1.8 2.1 3.3 4.4 4.6 6.8 1.2 2.3 2.1 4.9 2.8 7.5zm8.1-6.9c-.7-1.2-1.6-2.2-2.5-3.2-2.1-2-4.6-3.6-7.4-4.2 2.6 1.2 4.8 3 6.6 5 1.8 2.1 3.1 4.5 3.9 7.1.8 2.6 1.1 5.3.9 8.1-.2 2.7-.9 5.5-2.1 8 1.7-2.2 2.8-5 3.3-7.9.5-2.9.3-5.8-.6-8.7-.3-.9-.7-1.8-1.1-2.6.8 1 1.6 2.1 2.3 3.2 1.3 2 2.4 4.2 3.2 6.4.8 2.2 1.5 4.6 1.5 6.9 0 1.2-.2 2.3-.8 3.4-.5 1.1-1.3 2-2.4 2.6 1.2-.3 2.3-1.2 3-2.2.7-1.1 1.2-2.4 1.3-3.7.3-2.6-.4-5.1-1.2-7.5-1.6-4.2-4.3-8-7.9-10.7zm12.3 11.5c-1-1.8-2.4-3.5-4-4.7 1.2 1.6 2.2 3.4 3 5.2.7 1.8 1.2 3.7 1.4 5.7.2 1.9 0 3.9-.4 5.8s-1.1 3.8-2.1 5.6c1.5-1.5 2.5-3.3 3.2-5.3.7-2 .9-4.1.8-6.3-.3-2.1-.9-4.1-1.9-6zm7.9 20.6c.2-1.7.1-3.3-.3-5-.3-1.4-.9-2.8-1.6-4v-.4c-.2-2-.7-4-1.6-5.8-.9-1.8-2.2-3.4-3.7-4.6 1.1 1.6 2 3.3 2.6 5.1.6 1.8 1.1 3.6 1.2 5.5.1 1.9 0 3.7-.4 5.6-.4 1.8-1.1 3.7-1.9 5.4 1.4-1.4 2.4-3.2 3-5.1.5-1.5.8-3 .8-4.6.5 2.6.7 5.2.4 7.8-.3 3.1-1.3 6-2.8 8.9 1.2-1.1 2.2-2.4 2.9-3.9.7-1.6 1.2-3.3 1.4-4.9zm2.5 7.5c.3-1.5.5-3.1.3-4.6-.1-1.5-.5-3.1-1.2-4.4.1 1.5.1 3 0 4.5-.1 1.4-.3 2.9-.6 4.3s-.8 2.8-1.3 4.1c-.6 1.3-1.2 2.7-2 4 1.2-.9 2.2-2.1 3-3.4.8-1.5 1.4-3 1.8-4.5zm.5 2.4c-.4 1-.7 2-1 2.9-.3 1-.6 1.9-1 2.8-.4.9-.7 1.9-1.1 2.8-.4.9-.8 1.9-1.2 2.9.9-.6 1.6-1.4 2.2-2.3.6-.9 1.1-1.8 1.5-2.8.4-1 .6-2.1.7-3.1.1-1.1.1-2.2-.1-3.2zm-1.2 9.3-.8 2.9-.9 2.9c-.3 1-.6 1.9-.9 3 .8-.7 1.4-1.6 1.9-2.5.5-.9.9-1.9 1.2-2.9s.5-2.1.6-3.1c.1-1.1 0-2.1-.2-3.2-.4 1-.6 2-.9 2.9zM79 153.1c-2.1 4.1-3.4 8.6-3.8 13.1-.2 2.3-.3 4.6-.1 6.9.2 2.3.5 4.6.7 6.8.2 2.2.2 4.4-.4 6.5-.5 2.1-1.6 4-3 5.7-2.8 3.4-7 5.7-11.6 5.9 2.3.2 4.6-.2 6.8-1.1 2.1-.9 4.1-2.3 5.7-4s2.8-3.8 3.5-6.1c.7-2.3.7-4.7.5-7-.2-2.3-.6-4.6-.8-6.8-.2-2.2-.2-4.5-.2-6.7.2-4.5 1.1-8.9 2.7-13.2zm-17.2 37.6c0-1.3-.3-2.5-.7-3.7-.9-2.4-2.5-4.4-4.3-6.1-1.8-1.7-3.9-3-5.9-4.4-1-.7-2-1.3-2.9-2.1-.9-.7-1.8-1.5-2.5-2.4-1.5-1.8-2.8-3.8-3.9-5.9-1-2.1-1.9-4.4-2.5-6.7-.6-2.3-.9-4.7-.9-7.1-.6 4.8.4 9.8 2.4 14.3 1 2.2 2.2 4.4 3.8 6.3.8.9 1.7 1.8 2.7 2.6 1 .8 2 1.4 3 2.1 2 1.4 4 2.7 5.8 4.2 1.8 1.5 3.3 3.4 4.2 5.5.9 2.1 1.2 4.5.3 6.6-.8 2.1-2.7 4-5.1 4.4 1.2 0 2.4-.4 3.4-1.2 1-.7 1.8-1.8 2.4-2.9.4-.9.7-2.2.7-3.5zm6.4-2.2c.7-2.1.9-4.4.2-6.5-.7-2.2-2.1-3.9-3.5-5.4-1.4-1.5-2.8-3-3.7-4.8-1-1.7-1.5-3.7-1.7-5.7-.4-4 .6-8.2 3.1-11.5-1.5 1.5-2.6 3.3-3.3 5.3-.7 2-1 4.2-.9 6.3.1 2.1.7 4.3 1.6 6.2 1 2 2.5 3.6 3.8 5.1 1.4 1.5 2.7 3.1 3.3 4.9.6 1.8.5 3.9 0 5.7-.5 1.9-1.6 3.7-2.9 5.2-1.3 1.6-3 2.8-4.7 4 1.9-.9 3.7-2.1 5.2-3.5s2.8-3.2 3.5-5.3zM123 13.6c.8 1.4 1.4 3 1.5 4.7.1 1.6-.2 3.3-.8 4.8-.6 1.5-1.6 3-2.8 4.3 1.6-.8 3-2.1 3.9-3.8.9-1.6 1.3-3.5 1.2-5.4-.2-1.9-.9-3.7-2-5.2s-2.7-2.6-4.4-3.2c1.4 1.1 2.5 2.4 3.4 3.8zm-10.1 39.8c1.6.7 2.7 1.8 3.4 3.2.7 1.4 1.1 2.9 1.2 4.4 0 .5 0 .9-.1 1.4-.3-1-.7-2-1.3-2.9-1-1.4-2.4-2.6-3.9-3.4-1.5-.8-3.1-1.4-4.8-1.6 1.4.8 2.8 1.6 4.1 2.6 1.3 1 2.4 2 3.3 3.3.9 1.2 1.4 2.7 1.7 4.2.1.6.1 1.1.1 1.7l-1.2 4.2c1-1.4 1.8-2.8 2.4-4.4.6-1.6 1-3.3 1-5.1-.1-1.8-.6-3.6-1.7-5-.9-1.5-2.5-2.6-4.2-2.6zm-39 101c-.2 2.5-.8 5.1-1.6 7.5-.4 1.2-.9 2.4-1.6 3.6-.6 1.2-1.3 2.3-2 3.4-.8 1.1-1.7 2.3-1.9 3.7-.1.7 0 1.4.3 2 .3.6.9 1.2 1.7 1.4-1.3-.7-1.6-2.2-1.3-3.3.4-1.2 1.3-2.2 2.2-3.3 1.7-2.2 3.1-4.6 4-7.1.5-1.3.8-2.6 1-3.9.2-1.3.4-2.6.3-3.9 0-2.6-.5-5.2-1.4-7.7.4 2.5.5 5.1.3 7.6z" fill="#0c080c" stroke-width="none" opacity="1" stroke="none"></path></g><g id="svga-group-glasses-single-move" transform="matrix(1,0,0,1,0,0)"><g id="svga-group-glasses-single"><path id="SvgjsPath10412" d="M96.1 90.7s.3-2.2-3.6-3.5c-3.1-1-6.2-1.2-8.8-1.2s-10.8-.1-12.9.1-5.2.4-6 3.4c-.8 3 1 7.8 5.2 10.2 4.2 2.3 12.5 2.5 17.8 1 5.3-1.5 7.8-5 8.3-10z" fill="#ffffff" stroke-width="none" opacity="0.44"></path><path id="SvgjsPath10413" d="M104.9 90.7s-.2-2.2 3.8-3.5c3.1-1 6.3-1.2 8.9-1.2s10.9-.1 13 .1 5.2.4 5.9 3.4c.6 3-1.4 7.9-5.7 10.3-4.3 2.3-12.6 2.5-17.9 1-5.4-1.6-7.7-5.1-8-10.1z" fill="#ffffff" stroke-width="none" opacity="0.44"></path><path id="SvgjsPath10414" d="M96.1 90.1s3.8-1.7 8.8 0v1s-5.4-1-8.9 0l.1-1z" fill="#070201" stroke-width="none" opacity="1"></path><path id="SvgjsPath10415" d="M79.9 102.1c-4.1 0-7.8-.7-10.1-2-3.8-2.1-5.6-6.2-5.6-9V91h-2.5l-.2-2.1h3.1v-.1c1.1-2.6 4-2.8 5.9-3h.2c.9-.1 2.9-.1 6.3-.1H83.6c2.5 0 5.8.1 8.9 1.2 4.1 1.4 3.9 3.7 3.9 3.9-.6 5.4-3.5 8.9-8.6 10.4-2.1.6-5 .9-7.9.9zm-2.8-15.7c-3.4 0-5.4 0-6.3.1h-.2c-2.1.2-4.8.4-5.5 3.1-.8 3 1.1 7.6 5 9.8 2.2 1.2 5.7 1.9 9.7 1.9 2.8 0 5.6-.3 7.8-1 4.9-1.4 7.5-4.6 8.1-9.8 0-.2.1-2-3.4-3.1-3-1-6.2-1.1-8.7-1.1h-2.3c-1.2.1-2.7.1-4.2.1zm43.5 15.7c-2.9 0-5.7-.4-7.9-1-5.1-1.5-7.8-4.9-8.2-10.4 0-.3-.1-2.6 4.1-3.9 3.2-1 6.5-1.2 9-1.2h6.7c3.4 0 5.4 0 6.3.1h.2c1.9.2 4.8.4 5.8 3v.1h3.1l-.3 2.1h-2.5v.1c-.2 2.9-2.1 6.9-6 9.1-2.4 1.3-6.2 2-10.3 2zm3.6-15.7h-6.6c-2.4 0-5.7.1-8.7 1.1-3.5 1.2-3.5 2.9-3.5 3.1.3 5.2 2.8 8.4 7.6 9.8 2.1.6 4.9 1 7.7 1 4 0 7.6-.7 9.8-1.9 4.1-2.2 6.1-6.9 5.5-9.8-.6-2.7-3.2-2.9-5.4-3.2h-.2c-.8-.1-2.9-.1-6.2-.1z" fill="#26120b" stroke-width="none" opacity="1"></path><path id="SvgjsPath10416" d="M77 85.7h6.7c2.5 0 5.8.1 8.9 1.2 4 1.3 3.8 3.6 3.8 3.8-.6 5.4-3.4 8.8-8.5 10.3-2.2.7-5.1 1-7.9 1-4.1 0-7.8-.7-10-2-3.7-2.1-5.5-6.1-5.5-8.9v-.3H62l-.3-1.8h3l.1-.1c1-2.5 3.9-2.8 5.8-2.9h.2c.8-.2 2.9-.3 6.2-.3m2.9 15.8c2.8 0 5.6-.3 7.8-1 4.9-1.4 7.6-4.6 8.2-9.9 0-.2.1-2.1-3.5-3.2-3-1-6.2-1.1-8.7-1.1H77.1c-3.4 0-5.4 0-6.3.1h-.2c-2.1.2-4.9.5-5.6 3.2-.8 3 1.1 7.7 5.1 9.9 2.2 1.3 5.8 2 9.8 2m-2.9-16c-2.7 0-5.2 0-6.3.1h-.2c-2 .2-4.9.5-6 3.1h-3.1l.2 2.3h2.5c0 3.2 2.1 7.1 5.7 9.1 2.5 1.4 6.4 2.1 10.2 2.1 2.9 0 5.7-.4 8-1 5.2-1.5 8.1-5 8.7-10.5 0-.3.2-2.7-4-4.1-3.1-1.1-6.4-1.2-9-1.2h-2.2c-1.3.1-2.9.1-4.5.1zm2.9 15.8c-3.6 0-7.3-.6-9.7-1.9-3.9-2.2-5.7-6.8-5-9.7.7-2.6 3.3-2.9 5.4-3.1h.2c1-.1 3.6-.1 6.2-.1H83.6c2.4 0 5.6.1 8.6 1.1 3.4 1.1 3.3 2.9 3.3 3-.5 5.1-3.1 8.3-8 9.7-2 .6-4.8 1-7.6 1zm44.4-15.9v.3c3.4 0 5.4 0 6.3.1h.2c1.9.2 4.7.4 5.7 2.9l.1.1h3.1l-.3 1.8h-2.5v.3c-.2 2.8-2.1 6.8-6 8.9-2.4 1.3-6.1 2-10.2 2-2.9 0-5.7-.4-7.9-1-5-1.5-7.8-4.9-8.1-10.3 0-.2-.1-2.5 4-3.8 3.2-1 6.4-1.2 8.9-1.2H124.3v-.1m-3.6 16.1c4 0 7.7-.7 9.9-1.9 4.1-2.3 6.2-7 5.6-10-.6-2.8-3.4-3-5.5-3.2h-.2c-.9-.1-2.9-.1-6.3-.1h-6.7c-2.5 0-5.7.1-8.8 1.1-3.6 1.2-3.6 3.1-3.6 3.3.3 5.2 2.8 8.4 7.7 9.9 2.3.6 5 .9 7.9.9m3.6-16.1h-6.7c-2.5 0-5.8.1-9.1 1.2-4.3 1.4-4.2 3.8-4.2 4.1.3 5.5 3.1 9 8.2 10.5 2.2.7 5.1 1 8 1 3.8 0 7.7-.6 10.3-2.1 3.7-2.1 5.9-6 6.1-9.2h2.5l.3-2.4h-3.1c-1-2.6-3.9-2.9-5.9-3.1h-.2c-.9.1-3.5 0-6.2 0zm-3.6 15.9c-2.8 0-5.6-.3-7.7-1-4.8-1.4-7.3-4.5-7.6-9.7 0-.1-.1-1.8 3.4-3 3-1 6.2-1.1 8.7-1.1H124.1c2.6 0 5.2 0 6.3.1h.2c2.1.2 4.7.4 5.3 3.1.6 2.9-1.4 7.5-5.4 9.7-2.5 1.3-6.2 1.9-9.8 1.9z" fill="#070201" stroke-width="none" opacity="1"></path></g></g></g></g></g><rect id="svga-credit-rect" width="200" height="15" x="0" y="185" fill="#ecf0f1" opacity="0.5" style="display: none;"></rect><text id="svga-credit-text" font-family="Avenir Next, Roboto, Helvetica, Arial, sans-serif" font-size="10px" text-anchor="start" font-weight="400" size="10px" anchor="start" weight="400" fill="#333333" x="33.40447998046875" y="182.60824704170227" style="display: none;"><tspan id="SvgjsTspan10188" dy="13" x="33.40447998046875">Created on AvatarMaker.com</tspan></text></g><defs id="SvgjsDefs10140"><linearGradient id="SvgjsLinearGradient11323" x1="100.0291" y1="78.4287" x2="100.0291" y2="116.3678" gradientUnits="userSpaceOnUse" class="svga-on-canvas-nose-gradient-single-0-null"><stop id="SvgjsStop11324" stop-opacity="0" stop-color="#fff4f3" offset="0" ></stop><stop id="SvgjsStop11325" stop-opacity="0.9727" stop-color="#f3d4cf" offset="0.7584" ></stop><stop id="SvgjsStop11326" stop-opacity="0.9769" stop-color="#ebc3bd" offset="0.7953" ></stop><stop id="SvgjsStop11327" stop-opacity="0.9852" stop-color="#e4b3ab" offset="0.8691" ></stop><stop id="SvgjsStop11328" stop-opacity="0.9968" stop-color="#d4958a" offset="0.972" ></stop><stop id="SvgjsStop11329" stop-opacity="1" stop-color="#c5796d" offset="1" ></stop></linearGradient><linearGradient id="SvgjsLinearGradient11353" x1="99.7789" y1="100.5259" x2="99.7789" y2="111.7225" gradientUnits="userSpaceOnUse" class="svga-on-canvas-nose-gradient-single-0-null"><stop id="SvgjsStop11354" stop-opacity="0" stop-color="#f3d4cf" offset="0" ></stop><stop id="SvgjsStop11355" stop-opacity="1" stop-color="#ebc3bd" offset="1" ></stop></linearGradient><linearGradient id="SvgjsLinearGradient11427" x1="100.1029" y1="84.5527" x2="100.1029" y2="114.9561" gradientUnits="userSpaceOnUse" class="svga-on-canvas-nose-gradient-single-0-null"><stop id="SvgjsStop11428" stop-opacity="0" stop-color="#ebc3bd" offset="0" ></stop><stop id="SvgjsStop11429" stop-opacity="1" stop-color="#d4958a" offset="1" ></stop></linearGradient></defs></svg>